<?xml version="1.0" standalone="no"?>
<!DOCTYPE svg PUBLIC "-//W3C//DTD SVG 20010904//EN"
 "http://www.w3.org/TR/2001/REC-SVG-20010904/DTD/svg10.dtd">
<svg version="1.0" xmlns="http://www.w3.org/2000/svg"
 width="868.000000pt" height="868.000000pt" viewBox="0 0 868.000000 868.000000"
 preserveAspectRatio="xMidYMid meet">
<metadata>
Created by potrace 1.14, written by Peter Selinger 2001-2017
</metadata>
<g transform="translate(0.000000,868.000000) scale(0.100000,-0.100000)"
fill="#000000" stroke="none">
<path d="M1680 7649 c-19 -5 -48 -11 -65 -14 -16 -4 -57 -18 -90 -33 -193 -85
-339 -236 -408 -422 -49 -133 -47 9 -46 -2725 0 -2639 -1 -2580 37 -2700 13
-41 66 -149 94 -188 66 -96 200 -205 313 -254 45 -20 65 -27 146 -51 13 -4
1212 -8 2664 -9 2548 -3 2642 -2 2710 16 148 39 242 90 343 186 80 74 162 198
186 276 49 163 46 -57 45 2714 0 1697 -3 2567 -10 2600 -6 28 -13 61 -15 75
-6 27 -63 162 -73 170 -3 3 -12 16 -19 30 -12 24 -45 65 -99 124 -79 84 -220
162 -370 203 -39 11 -5300 13 -5343 2z"/>
</g>
</svg>
